<?xml version="1.0" encoding="UTF-8" standalone="no"?>
<!-- Created with Inkscape (http://www.inkscape.org/) -->

<svg
   width="210mm"
   height="297mm"
   viewBox="0 0 210 297"
   version="1.1"
   id="svg5"
   inkscape:version="1.1.1 (3bf5ae0d25, 2021-09-20)"
   sodipodi:docname="ligmacover.svg"
   xmlns:inkscape="http://www.inkscape.org/namespaces/inkscape"
   xmlns:sodipodi="http://sodipodi.sourceforge.net/DTD/sodipodi-0.dtd"
   xmlns="http://www.w3.org/2000/svg"
   xmlns:svg="http://www.w3.org/2000/svg">
  <sodipodi:namedview
     id="namedview7"
     pagecolor="#ffffff"
     bordercolor="#666666"
     borderopacity="1.0"
     inkscape:pageshadow="2"
     inkscape:pageopacity="0.0"
     inkscape:pagecheckerboard="0"
     inkscape:document-units="mm"
     showgrid="false"
     inkscape:zoom="0.64052329"
     inkscape:cx="358.30079"
     inkscape:cy="560.47923"
     inkscape:window-width="1920"
     inkscape:window-height="1018"
     inkscape:window-x="-8"
     inkscape:window-y="-8"
     inkscape:window-maximized="1"
     inkscape:current-layer="layer1" />
  <defs
     id="defs2">
    <marker
       style="overflow:visible"
       id="Arrow1Lstart"
       refX="0.0"
       refY="0.0"
       orient="auto"
       inkscape:stockid="Arrow1Lstart"
       inkscape:isstock="true">
      <path
         transform="scale(0.8) translate(12.5,0)"
         style="fill-rule:evenodd;fill:context-stroke;stroke:context-stroke;stroke-width:1.0pt"
         d="M 0.0,0.0 L 5.0,-5.0 L -12.5,0.0 L 5.0,5.0 L 0.0,0.0 z "
         id="path20214" />
    </marker>
  </defs>
  <g
     inkscape:label="Layer 1"
     inkscape:groupmode="layer"
     id="layer1">
    <text
       xml:space="preserve"
       style="font-weight:bold;font-size:52.6452px;line-height:1.25;font-family:'Times New Roman';-inkscape-font-specification:'Times New Roman,  Bold';stroke-width:0.548387"
       x="31.713486"
       y="114.02683"
       id="text2498"
       transform="scale(0.45667581,2.1897372)"><tspan
         sodipodi:role="line"
         id="tspan2496"
         style="font-style:normal;font-variant:normal;font-weight:bold;font-stretch:normal;font-size:52.6452px;font-family:'Times New Roman';-inkscape-font-specification:'Times New Roman,  Bold';stroke-width:0.548387"
         x="31.713486"
         y="114.02683">LIGMAScript</tspan></text>
    <text
       xml:space="preserve"
       style="font-weight:bold;font-size:12.7273px;line-height:1.25;font-family:'Times New Roman';-inkscape-font-specification:'Times New Roman,  Bold';stroke-width:0.198864"
       x="19.532135"
       y="125.43057"
       id="text6168"
       transform="scale(0.75161336,1.3304713)"><tspan
         sodipodi:role="line"
         id="tspan6166"
         style="font-style:normal;font-variant:normal;font-weight:normal;font-stretch:normal;font-size:12.7273px;font-family:'Times New Roman';-inkscape-font-specification:'Times New Roman, ';stroke-width:0.198864"
         x="19.532135"
         y="125.43057">The Programming Language</tspan></text>
    <g
       aria-label="TOP SECRET"
       id="text11104"
       style="font-weight:bold;font-size:25.4px;line-height:1.25;font-family:'Times New Roman';-inkscape-font-specification:'Times New Roman,  Bold';fill:#ff0000;fill-opacity:1;stroke:#ff0000;stroke-width:1.365;stroke-miterlimit:4;stroke-dasharray:none;stroke-opacity:1;paint-order:stroke fill markers"
       transform="matrix(0.57952782,0,0,2.4017849,-1.1297961,-37.00655)">
      <path
         d="m 42.87362,21.185203 v 4.55166 H 42.427136 Q 42.030261,24.161765 41.54657,23.479637 41.062878,22.785105 40.219519,22.375828 39.74823,22.152586 38.570007,22.152586 H 37.31737 v 12.972851 q 0,1.289844 0.136426,1.612305 0.148828,0.322461 0.558106,0.570508 0.421679,0.235644 1.141015,0.235644 h 0.558106 v 0.458887 h -8.805664 v -0.458887 h 0.558105 q 0.731739,0 1.178223,-0.260449 0.322461,-0.173633 0.508496,-0.595313 0.136426,-0.297656 0.136426,-1.562695 V 22.152586 h -1.21543 q -1.699121,0 -2.468066,0.719336 -1.079004,1.00459 -1.364258,2.864941 h -0.471289 v -4.55166 z"
         style="fill:#ff0000;fill-opacity:1;stroke:#ff0000;stroke-width:1.365;stroke-miterlimit:4;stroke-dasharray:none;stroke-opacity:1;paint-order:stroke fill markers"
         id="path19959" />
      <path
         d="m 53.14276,20.949559 q 4.018359,-0.148829 6.523633,2.344042 2.517675,2.492872 2.517675,6.238379 0,3.199805 -1.872753,5.630664 -2.480469,3.22461 -7.007325,3.22461 -4.539257,0 -7.019726,-3.075782 -1.95957,-2.430859 -1.95957,-5.767089 0,-3.745508 2.54248,-6.238379 2.554883,-2.505274 6.275586,-2.356445 z m 0.148828,0.79375 q -2.306836,0 -3.509863,2.356445 -0.979785,1.934765 -0.979785,5.55625 0,4.303613 1.513086,6.362402 1.054199,1.438672 2.951757,1.438672 1.277442,0 2.133203,-0.620117 1.091407,-0.79375 1.699122,-2.530078 0.607714,-1.748731 0.607714,-4.551661 0,-3.33623 -0.620117,-4.985742 -0.620117,-1.661914 -1.5875,-2.344043 -0.95498,-0.682128 -2.207617,-0.682128 z"
         style="fill:#ff0000;fill-opacity:1;stroke:#ff0000;stroke-width:1.365;stroke-miterlimit:4;stroke-dasharray:none;stroke-opacity:1;paint-order:stroke fill markers"
         id="path19961" />
      <path
         d="m 69.947935,30.387742 v 4.663281 q 0,1.364258 0.161231,1.723926 0.173633,0.347266 0.595312,0.558105 0.434082,0.21084 1.575098,0.21084 v 0.458887 h -8.545215 v -0.458887 q 1.165821,0 1.575098,-0.21084 0.42168,-0.223242 0.58291,-0.570507 0.173633,-0.347266 0.173633,-1.711524 V 24.136961 q 0,-1.364258 -0.173633,-1.711524 -0.16123,-0.359668 -0.58291,-0.570507 -0.42168,-0.21084 -1.575098,-0.21084 v -0.458887 h 7.329785 q 3.621485,0 5.196582,1.289844 1.575098,1.289844 1.575098,3.224609 0,1.637109 -1.016992,2.80293 -1.016992,1.16582 -2.80293,1.5875 -1.203027,0.297656 -4.067969,0.297656 z m 0,-8.235156 v 7.267773 q 0.409278,0.0248 0.620118,0.0248 1.513085,0 2.33164,-0.892969 0.818555,-0.905371 0.818555,-2.790527 0,-1.872754 -0.818555,-2.740918 -0.818555,-0.868164 -2.443262,-0.868164 z"
         style="fill:#ff0000;fill-opacity:1;stroke:#ff0000;stroke-width:1.365;stroke-miterlimit:4;stroke-dasharray:none;stroke-opacity:1;paint-order:stroke fill markers"
         id="path19963" />
      <path
         d="m 95.484361,20.80073 0.136426,5.60586 h -0.508496 q -0.359668,-2.108399 -1.773535,-3.38584 -1.401465,-1.289844 -3.038575,-1.289844 -1.265039,0 -2.009179,0.682129 -0.731738,0.669727 -0.731738,1.550293 0,0.558105 0.260449,0.992187 0.359668,0.582911 1.153418,1.153418 0.58291,0.409278 2.691308,1.451075 2.951758,1.451074 3.981153,2.740918 1.016992,1.289843 1.016992,2.951757 0,2.108399 -1.649512,3.633887 -1.637109,1.513086 -4.167187,1.513086 -0.79375,0 -1.500684,-0.161231 -0.706934,-0.16123 -1.773535,-0.607714 -0.595313,-0.248047 -0.979785,-0.248047 -0.322461,0 -0.682129,0.248047 -0.359668,0.248046 -0.58291,0.756543 h -0.458887 v -6.35 h 0.458887 q 0.545703,2.678906 2.095996,4.092773 1.562695,1.401465 3.361035,1.401465 1.389062,0 2.207617,-0.756543 0.830957,-0.756543 0.830957,-1.761133 0,-0.595312 -0.322461,-1.153418 -0.310058,-0.558105 -0.95498,-1.054199 -0.644922,-0.508496 -2.282032,-1.314648 -2.294433,-1.128614 -3.299023,-1.922364 -1.00459,-0.79375 -1.550293,-1.773535 -0.533301,-0.979785 -0.533301,-2.158008 0,-2.009179 1.475879,-3.423046 1.475879,-1.413868 3.720703,-1.413868 0.818555,0 1.5875,0.198438 0.58291,0.148828 1.413867,0.558105 0.84336,0.396875 1.178223,0.396875 0.322461,0 0.508496,-0.198437 0.186035,-0.198438 0.347266,-0.954981 z"
         style="fill:#ff0000;fill-opacity:1;stroke:#ff0000;stroke-width:1.365;stroke-miterlimit:4;stroke-dasharray:none;stroke-opacity:1;paint-order:stroke fill markers"
         id="path19965" />
      <path
         d="m 104.60008,22.152586 v 6.846093 h 0.33486 q 1.59991,0 2.31924,-1.004589 0.71934,-1.00459 0.91778,-2.96416 h 0.47128 v 8.805663 h -0.47128 q -0.14883,-1.438671 -0.63252,-2.356445 -0.47129,-0.917773 -1.10381,-1.227832 -0.63252,-0.322461 -1.83555,-0.322461 v 4.737695 q 0,1.389063 0.11162,1.699122 0.12403,0.310058 0.44649,0.508496 0.32246,0.198437 1.04179,0.198437 h 1.00459 q 2.35645,0 3.77032,-1.091406 1.42626,-1.091406 2.04638,-3.323828 h 0.45889 l -0.75654,5.34541 H 98.188069 v -0.458887 h 0.558106 q 0.731738,0 1.178222,-0.260449 0.322463,-0.173633 0.496093,-0.595313 0.13643,-0.297656 0.13643,-1.562695 v -11.06289 q 0,-1.141016 -0.062,-1.401465 -0.12404,-0.434082 -0.4589,-0.669727 -0.471291,-0.347265 -1.289845,-0.347265 h -0.558106 v -0.458887 h 14.076661 v 4.97334 h -0.47129 q -0.35967,-1.823145 -1.01699,-2.616895 -0.64492,-0.79375 -1.83555,-1.16582 -0.69453,-0.223242 -2.60449,-0.223242 z"
         style="fill:#ff0000;fill-opacity:1;stroke:#ff0000;stroke-width:1.365;stroke-miterlimit:4;stroke-dasharray:none;stroke-opacity:1;paint-order:stroke fill markers"
         id="path19967" />
      <path
         d="m 131.57518,20.80073 v 5.829102 h -0.48369 q -0.5457,-2.282031 -2.03398,-3.497461 -1.48829,-1.21543 -3.37344,-1.21543 -1.5751,0 -2.88975,0.905371 -1.31465,0.905371 -1.92236,2.368848 -0.78135,1.872754 -0.78135,4.167187 0,2.257227 0.57051,4.117579 0.57051,1.847949 1.78594,2.802929 1.21543,0.942578 3.15019,0.942578 1.5875,0 2.90215,-0.694531 1.32705,-0.694531 2.79053,-2.393652 v 1.451074 q -1.41387,1.475879 -2.95176,2.145605 -1.52549,0.657325 -3.57188,0.657325 -2.6913,0 -4.7873,-1.079004 -2.08359,-1.079004 -3.22461,-3.100586 -1.12861,-2.021582 -1.12861,-4.303613 0,-2.406055 1.25263,-4.564063 1.26504,-2.158008 3.39825,-3.348633 2.1456,-1.190625 4.55166,-1.190625 1.77353,0 3.7455,0.768946 1.14102,0.446484 1.45108,0.446484 0.39687,0 0.68213,-0.285254 0.29765,-0.297656 0.38447,-0.930176 z"
         style="fill:#ff0000;fill-opacity:1;stroke:#ff0000;stroke-width:1.365;stroke-miterlimit:4;stroke-dasharray:none;stroke-opacity:1;paint-order:stroke fill markers"
         id="path19969" />
      <path
         d="m 139.71112,30.338133 v 4.71289 q 0,1.364258 0.16123,1.723926 0.17363,0.347266 0.59531,0.558105 0.42168,0.21084 1.5751,0.21084 v 0.458887 h -8.60723 v -0.458887 q 1.16582,0 1.5751,-0.21084 0.42168,-0.223242 0.58291,-0.570507 0.17363,-0.347266 0.17363,-1.711524 V 24.136961 q 0,-1.364258 -0.17363,-1.711524 -0.16123,-0.359668 -0.58291,-0.570507 -0.42168,-0.21084 -1.5751,-0.21084 v -0.458887 h 7.81348 q 3.05097,0 4.46484,0.42168 1.41387,0.421679 2.30684,1.562695 0.89296,1.128613 0.89296,2.654102 0,1.860351 -1.33945,3.075781 -0.85576,0.768945 -2.39365,1.153418 l 4.04316,5.692675 q 0.79375,1.103809 1.12862,1.376661 0.50849,0.384472 1.17822,0.421679 v 0.458887 h -5.2958 l -5.41983,-7.664648 z m 0,-8.247559 v 7.366992 h 0.70693 q 1.72393,0 2.57969,-0.310058 0.85576,-0.322461 1.33945,-1.141016 0.49609,-0.830957 0.49609,-2.158008 0,-1.922363 -0.90537,-2.840136 -0.89297,-0.917774 -2.88974,-0.917774 z"
         style="fill:#ff0000;fill-opacity:1;stroke:#ff0000;stroke-width:1.365;stroke-miterlimit:4;stroke-dasharray:none;stroke-opacity:1;paint-order:stroke fill markers"
         id="path19971" />
      <path
         d="m 158.22781,22.152586 v 6.846093 h 0.33487 q 1.5999,0 2.31923,-1.004589 0.71934,-1.00459 0.91778,-2.96416 h 0.47129 v 8.805663 h -0.47129 q -0.14883,-1.438671 -0.63252,-2.356445 -0.47129,-0.917773 -1.10381,-1.227832 -0.63252,-0.322461 -1.83555,-0.322461 v 4.737695 q 0,1.389063 0.11162,1.699122 0.12403,0.310058 0.44649,0.508496 0.32246,0.198437 1.04179,0.198437 h 1.00459 q 2.35645,0 3.77032,-1.091406 1.42627,-1.091406 2.04638,-3.323828 h 0.45889 l -0.75654,5.34541 H 151.8158 v -0.458887 h 0.55811 q 0.73173,0 1.17822,-0.260449 0.32246,-0.173633 0.49609,-0.595313 0.13643,-0.297656 0.13643,-1.562695 v -11.06289 q 0,-1.141016 -0.062,-1.401465 -0.12403,-0.434082 -0.45889,-0.669727 -0.47129,-0.347265 -1.28984,-0.347265 h -0.55811 v -0.458887 h 14.07666 v 4.97334 h -0.47129 q -0.35967,-1.823145 -1.01699,-2.616895 -0.64492,-0.79375 -1.83555,-1.16582 -0.69453,-0.223242 -2.60449,-0.223242 z"
         style="fill:#ff0000;fill-opacity:1;stroke:#ff0000;stroke-width:1.365;stroke-miterlimit:4;stroke-dasharray:none;stroke-opacity:1;paint-order:stroke fill markers"
         id="path19973" />
      <path
         d="m 184.27273,21.185203 v 4.55166 h -0.44649 q -0.39687,-1.575098 -0.88056,-2.257226 -0.48369,-0.694532 -1.32705,-1.103809 -0.47129,-0.223242 -1.64951,-0.223242 h -1.25264 v 12.972851 q 0,1.289844 0.13643,1.612305 0.14882,0.322461 0.5581,0.570508 0.42168,0.235644 1.14102,0.235644 h 0.5581 v 0.458887 h -8.80566 v -0.458887 h 0.5581 q 0.73174,0 1.17823,-0.260449 0.32246,-0.173633 0.50849,-0.595313 0.13643,-0.297656 0.13643,-1.562695 V 22.152586 h -1.21543 q -1.69912,0 -2.46807,0.719336 -1.079,1.00459 -1.36426,2.864941 h -0.47129 v -4.55166 z"
         style="fill:#ff0000;fill-opacity:1;stroke:#ff0000;stroke-width:1.365;stroke-miterlimit:4;stroke-dasharray:none;stroke-opacity:1;paint-order:stroke fill markers"
         id="path19975" />
    </g>
    <g
       aria-label="DO NOT DISTRIBUTE"
       id="text23002"
       style="font-weight:bold;font-size:22.5778px;line-height:1.25;font-family:'Times New Roman';-inkscape-font-specification:'Times New Roman,  Bold';stroke:#ff0000;stroke-width:1.265;stroke-miterlimit:4;stroke-dasharray:none;stroke-opacity:1"
       transform="matrix(0.87199483,0,0,1.0053583,9.9686082,9.6852079)">
      <path
         d="m 32.170109,226.05465 -0.691427,-0.59971 0.382286,-0.33157 q 0.50122,-0.43473 0.428206,-0.9549 -0.08321,-0.54374 -0.553769,-1.17293 -0.315974,-0.40669 -2.278125,-2.10856 L 12.788329,206.42921 q -1.943466,-1.68566 -2.52278,-2.02602 -0.5793142,-0.34036 -1.2232082,-0.3978 -0.654088,-0.081 -1.138317,0.33899 l -0.382288,0.33157 -0.691423,-0.5997 5.1566162,-4.47258 q 2.064346,-1.7905 4.554994,-1.81127 3.0513,-0.0208 6.906052,1.9521 3.86325,1.96553 7.731493,5.32064 2.672265,2.31778 4.542629,4.61793 1.85168,2.28393 2.707812,4.10227 0.837445,1.80213 0.918885,3.28749 0.07125,1.46178 -0.615229,2.90003 -0.293963,0.64396 -1.40684,1.60921 z M 12.661266,201.51486 32.432288,218.6632 q 1.569722,1.36149 1.992739,1.6105 0.423014,0.24902 0.771298,0.2711 0.509679,0.0442 0.942937,-0.33161 1.418706,-1.23051 0.03595,-3.72666 -1.858395,-3.38027 -7.913038,-8.63175 -4.877349,-4.23036 -8.489157,-6.15464 -2.832026,-1.49847 -4.520776,-1.46007 -1.190959,0.0281 -2.59098,1.27479 z"
         style="fill:#ff0000;stroke:#ff0000;stroke-width:1.90418;stroke-miterlimit:4;stroke-dasharray:none;stroke-opacity:1"
         id="path35759" />
      <path
         d="m 25.530099,187.24113 q 2.528213,-2.58184 8.000372,-0.81239 5.480657,1.76209 11.124186,6.65699 4.82128,4.18173 7.20119,8.47117 3.15961,5.68781 0.0588,8.37725 -3.10926,2.69681 -9.44273,0.15083 -5.004929,-2.01262 -10.031777,-6.37265 -5.643523,-4.89489 -7.658116,-9.66326 -2.024787,-4.79195 0.748035,-6.80794 z m 1.297919,0.9489 q -1.580116,1.37051 1.146406,5.16481 2.244072,3.11059 7.700726,7.8434 6.484447,5.62427 10.622937,7.4159 2.88981,1.25385 4.18958,0.1265 0.87501,-0.75894 0.52682,-2.07777 -0.44839,-1.68574 -2.64833,-4.31594 -2.21862,-2.64642 -6.44192,-6.30949 -5.026848,-4.36002 -7.937004,-6.1473 -2.928842,-1.80349 -4.619265,-2.12022 -1.68193,-0.32409 -2.53995,0.42011 z"
         style="fill:#ff0000;stroke:#ff0000;stroke-width:1.90418;stroke-miterlimit:4;stroke-dasharray:none;stroke-opacity:1"
         id="path35761" />
      <path
         d="m 41.380487,174.10925 21.39923,8.70173 -10.89462,-9.44942 q -2.27983,-1.97741 -3.38072,-2.41647 -1.49163,-0.5864 -2.41422,0.27864 l -0.69142,-0.5997 3.80587,-3.30101 0.69142,0.5997 q -0.52503,0.81197 -0.44351,1.32476 0.0713,0.48923 0.67439,1.26282 0.59287,0.75002 2.38683,2.30601 l 21.09781,18.29913 -0.28883,0.25052 -28.88795,-11.54237 16.10833,13.97152 q 2.1864,1.89637 3.40282,2.17039 1.22492,0.26664 1.81109,-0.24177 l 0.27185,-0.23579 0.69143,0.59971 -4.08622,3.54417 -0.69143,-0.59971 q 0.93279,-0.84145 0.46565,-1.89504 -0.46713,-1.05358 -2.48534,-2.80407 l -17.88362,-15.51131 -0.9191,-0.36981 q -1.3744,-0.55841 -1.972427,-0.5908 -0.598023,-0.0324 -1.162105,0.39204 l -0.691424,-0.59971 z"
         style="fill:#ff0000;stroke:#ff0000;stroke-width:1.90418;stroke-miterlimit:4;stroke-dasharray:none;stroke-opacity:1"
         id="path35763" />
      <path
         d="m 55.977067,160.83303 q 2.52822,-2.58184 8.00038,-0.81239 5.48065,1.7621 11.12417,6.65699 4.82129,4.18174 7.20119,8.47117 3.15962,5.68781 0.0589,8.37726 -3.10925,2.6968 -9.44272,0.15082 -5.00494,-2.01262 -10.03179,-6.37265 -5.64352,-4.89489 -7.65811,-9.66326 -2.02478,-4.79195 0.74803,-6.80794 z m 1.29793,0.9489 q -1.58012,1.37051 1.1464,5.16481 2.24407,3.11059 7.70073,7.8434 6.48444,5.62427 10.62292,7.41591 2.88981,1.25385 4.18959,0.12649 0.87501,-0.75894 0.52683,-2.07777 -0.44841,-1.68573 -2.64834,-4.31594 -2.21862,-2.64642 -6.44192,-6.30949 -5.02685,-4.36002 -7.937,-6.1473 -2.92884,-1.80349 -4.61928,-2.12021 -1.68192,-0.3241 -2.53993,0.4201 z"
         style="fill:#ff0000;stroke:#ff0000;stroke-width:1.90418;stroke-miterlimit:4;stroke-dasharray:none;stroke-opacity:1"
         id="path35765" />
      <path
         d="m 74.121167,145.7117 6.85819,5.94844 -0.30582,0.26525 q -2.64512,-1.82266 -4.00424,-2.42675 -1.37779,-0.62029 -2.57214,-0.65412 -0.65919,-0.0117 -1.46623,0.68823 l -0.85803,0.74421 19.54678,16.95384 q 1.94346,1.68566 2.52278,2.02602 0.58781,0.33299 1.24189,0.414 0.6439,0.0574 1.13662,-0.36993 l 0.38229,-0.33157 0.69142,0.59971 -6.03162,5.23151 -0.69143,-0.5997 0.38228,-0.33158 q 0.50123,-0.43473 0.41463,-1.04037 -0.0407,-0.41849 -0.54868,-1.08009 -0.35505,-0.47005 -2.26114,-2.12329 l -19.54677,-16.95385 -0.83254,0.72211 q -1.16385,1.00946 -0.60669,2.40636 0.77457,1.95392 3.38225,4.55463 l -0.32281,0.28 -6.85819,-5.94843 z"
         style="fill:#ff0000;stroke:#ff0000;stroke-width:1.90418;stroke-miterlimit:4;stroke-dasharray:none;stroke-opacity:1"
         id="path35767" />
      <path
         d="m 104.35423,163.44595 -0.69142,-0.59971 0.38229,-0.33158 q 0.50121,-0.43473 0.4282,-0.9549 -0.0832,-0.54373 -0.55377,-1.17293 -0.31598,-0.40668 -2.27814,-2.10854 L 84.972437,143.82052 q -1.94346,-1.68566 -2.52278,-2.02602 -0.57932,-0.34036 -1.22321,-0.3978 -0.65409,-0.081 -1.13831,0.33898 l -0.38229,0.33158 -0.69143,-0.5997 5.15662,-4.47258 q 2.06434,-1.7905 4.555,-1.81127 3.05129,-0.0208 6.90605,1.9521 3.86325,1.96553 7.731493,5.32064 2.67227,2.31778 4.54263,4.61792 1.85168,2.28394 2.70782,4.10227 0.83743,1.80214 0.91888,3.2875 0.0712,1.46177 -0.61524,2.90002 -0.29395,0.64397 -1.40683,1.60922 z M 84.845387,138.90616 104.61641,156.0545 q 1.56972,1.36149 1.99273,1.61051 0.42301,0.24902 0.7713,0.27109 0.50967,0.0442 0.94293,-0.33159 1.4187,-1.23051 0.036,-3.72667 -1.85839,-3.38027 -7.91303,-8.63175 -4.877353,-4.23036 -8.489163,-6.15465 -2.83202,-1.49847 -4.52078,-1.46005 -1.19095,0.0281 -2.59098,1.27478 z"
         style="fill:#ff0000;stroke:#ff0000;stroke-width:1.90418;stroke-miterlimit:4;stroke-dasharray:none;stroke-opacity:1"
         id="path35769" />
      <path
         d="m 122.36934,146.62118 0.69143,0.5997 -6.02313,5.22415 -0.69142,-0.59971 0.38228,-0.33157 q 0.50122,-0.43473 0.41462,-1.04037 -0.0407,-0.41849 -0.55718,-1.07272 -0.35504,-0.47006 -2.26113,-2.1233 L 97.655857,132.81959 q -1.94347,-1.68566 -2.52278,-2.02602 -0.57931,-0.34037 -1.22321,-0.3978 -0.65408,-0.081 -1.13832,0.33899 l -0.38228,0.33157 -0.69142,-0.59971 6.02313,-5.22414 0.69142,0.5997 -0.38229,0.33158 q -0.50121,0.43473 -0.41461,1.04036 0.0408,0.41849 0.54867,1.0801 0.35505,0.47005 2.261143,2.1233 l 16.66895,14.45777 q 1.94346,1.68566 2.52278,2.02602 0.58782,0.33299 1.24189,0.414 0.6439,0.0574 1.12812,-0.36256 z"
         style="fill:#ff0000;stroke:#ff0000;stroke-width:1.90418;stroke-miterlimit:4;stroke-dasharray:none;stroke-opacity:1"
         id="path35771" />
      <path
         d="m 105.71338,117.30538 8.54005,7.24508 -0.34831,0.3021 q -3.42318,-2.54172 -6.31642,-3.37118 -2.90343,-0.85304 -4.0248,0.11959 -0.86652,0.75157 -0.34845,2.08512 0.50791,1.30997 1.8347,2.46076 0.84092,0.72937 1.67336,1.14193 1.12467,0.54809 2.52797,0.82211 1.01595,0.18856 4.02987,0.29744 4.20826,0.1427 6.85683,1.21679 2.64008,1.08145 5.14416,3.25336 3.17682,2.75541 4.34546,5.72902 1.15847,2.95002 -0.57456,4.45316 -0.5437,0.47157 -1.27086,0.68086 -0.72717,0.20929 -2.13049,0.25947 -0.78151,0.0295 -1.04487,0.25793 -0.22087,0.19157 -0.0935,0.72942 0.12738,0.53785 0.74064,1.33501 l -0.31433,0.27264 -9.56783,-8.29863 0.31433,-0.27264 q 4.41022,3.17678 7.60245,4.10349 3.18207,0.90312 4.41387,-0.16528 0.95147,-0.82526 0.37224,-2.30028 -0.57074,-1.48238 -2.0844,-2.79525 -0.89698,-0.77799 -1.95878,-1.31579 -1.0533,-0.54516 -2.24255,-0.81033 -1.20792,-0.2814 -3.54395,-0.36231 -3.27217,-0.11181 -5.15626,-0.5523 -1.88409,-0.4405 -3.73417,-1.39674 -1.84158,-0.96362 -3.61686,-2.50341 -3.02732,-2.62574 -4.14672,-5.35031 -1.1194,-2.72457 0.41824,-4.05824 0.56068,-0.48631 1.38639,-0.68382 0.62352,-0.15181 1.80937,-0.11061 1.17567,0.0176 1.40504,-0.18133 0.22087,-0.19157 0.0493,-0.56143 -0.17157,-0.36986 -1.20104,-1.45435 z"
         style="fill:#ff0000;stroke:#ff0000;stroke-width:1.90418;stroke-miterlimit:4;stroke-dasharray:none;stroke-opacity:1"
         id="path35773" />
      <path
         d="m 118.7722,106.98375 6.85819,5.94844 -0.30584,0.26526 q -2.64511,-1.82266 -4.00422,-2.42675 -1.3778,-0.6203 -2.57215,-0.65412 -0.65919,-0.0118 -1.46623,0.68823 l -0.85803,0.7442 19.54678,16.95385 q 1.94346,1.68565 2.52278,2.02602 0.58781,0.333 1.24189,0.41401 0.64389,0.0574 1.13663,-0.36994 l 0.38228,-0.33157 0.69142,0.59971 -6.03162,5.23151 -0.69143,-0.59971 0.38228,-0.33157 q 0.50122,-0.43473 0.41462,-1.04036 -0.0407,-0.4185 -0.54867,-1.0801 -0.35505,-0.47005 -2.26114,-2.12329 l -19.54678,-16.95384 -0.83253,0.72209 q -1.16385,1.00946 -0.60669,2.40638 0.77457,1.95391 3.38225,4.55463 l -0.32282,0.27999 -6.85819,-5.94843 z"
         style="fill:#ff0000;stroke:#ff0000;stroke-width:1.90418;stroke-miterlimit:4;stroke-dasharray:none;stroke-opacity:1"
         id="path35775" />
      <path
         d="m 137.81339,114.39182 7.10112,6.15914 q 2.05559,1.78291 2.70795,2.15717 0.64218,0.35067 1.24869,0.37569 0.60653,0.025 1.39659,-0.66024 l 0.69143,0.5997 -5.89571,5.11363 -0.69143,-0.59971 q 0.79856,-0.69262 0.76122,-1.21132 -0.0475,-0.54227 -0.46033,-1.09189 -0.40431,-0.55698 -2.4599,-2.33989 l -16.44471,-14.26327 q -2.05558,-1.78291 -2.69775,-2.13359 -0.65237,-0.37425 -1.25889,-0.39927 -0.60653,-0.025 -1.39658,0.66024 l -0.69143,-0.5997 5.35201,-4.64205 q 2.08983,-1.812608 3.69366,-2.101532 1.60382,-0.288903 3.93469,0.671742 2.31219,0.94443 4.61071,2.93805 2.80308,2.43124 3.71693,4.81543 0.57244,1.51332 0.0983,2.92945 l 11.34685,5.03752 q 2.20686,0.97096 2.84735,1.1286 0.92761,0.20035 1.44241,-0.14891 l 0.69142,0.59971 -3.62746,3.14627 -15.26109,-6.79675 z m -12.42696,-10.77849 11.10017,9.62771 0.48422,-0.41999 q 1.18084,-1.0242 1.29984,-1.93783 0.1003,-0.92982 -0.80173,-2.28693 -0.91223,-1.38069 -2.91176,-3.11498 -2.8965,-2.51228 -4.89952,-3.1738 -1.9945,-0.66889 -3.36224,0.51741 z"
         style="fill:#ff0000;stroke:#ff0000;stroke-width:1.90418;stroke-miterlimit:4;stroke-dasharray:none;stroke-opacity:1"
         id="path35777" />
      <path
         d="m 162.98513,111.39319 0.69142,0.5997 -6.02313,5.22415 -0.69143,-0.5997 0.38228,-0.33158 q 0.50123,-0.43473 0.41462,-1.04036 -0.0408,-0.41849 -0.55717,-1.07273 -0.35505,-0.47005 -2.26114,-2.12329 L 138.27163,97.591612 q -1.94347,-1.68566 -2.52278,-2.026026 -0.57931,-0.340366 -1.2232,-0.397799 -0.65409,-0.08102 -1.13832,0.338984 l -0.38228,0.331572 -0.69143,-0.599704 6.02314,-5.224151 0.69142,0.599705 -0.38229,0.331578 q -0.50122,0.434731 -0.41463,1.040372 0.0408,0.418488 0.54869,1.080093 0.35505,0.470048 2.26114,2.123291 l 16.66895,14.457773 q 1.94346,1.68566 2.52278,2.02602 0.58781,0.333 1.24189,0.414 0.64389,0.0574 1.12813,-0.36256 z"
         style="fill:#ff0000;stroke:#ff0000;stroke-width:1.90418;stroke-miterlimit:4;stroke-dasharray:none;stroke-opacity:1"
         id="path35779" />
      <path
         d="m 158.37893,93.280285 q 2.48051,-0.692715 4.33912,-0.230115 2.65199,0.649703 5.36163,2.999902 2.85914,2.479864 3.68294,5.006998 0.97836,3.07381 -1.46827,5.19589 l -5.85322,5.07678 -0.69143,-0.59971 q 0.79855,-0.69262 0.76122,-1.21132 -0.0475,-0.54226 -0.46033,-1.09189 -0.40431,-0.55698 -2.4599,-2.33989 L 145.14598,91.823657 q -2.05559,-1.782909 -2.69775,-2.133588 -0.65238,-0.374242 -1.25889,-0.399269 -0.60652,-0.02502 -1.39659,0.660242 l -0.69142,-0.599704 5.52191,-4.789414 q 1.9794,-1.716825 3.58829,-1.750803 1.59022,-0.05019 3.61699,0.88247 2.00808,0.916448 3.74598,2.423818 1.83135,1.58841 2.66709,3.359603 0.81707,1.754966 0.13734,3.803273 z m -3.59683,2.244456 q 1.20633,-1.046309 1.17753,-2.058653 -0.0203,-1.019706 -0.79834,-2.225053 -0.77803,-1.205328 -2.45988,-2.664073 -1.68184,-1.458742 -3.05283,-2.117366 -1.38119,-0.682184 -2.50249,-0.68212 -1.12131,6.7e-5 -2.34293,1.092053 z m 1.4576,1.264246 8.12892,7.050593 0.92587,0.81777 q 1.00911,0.87525 1.76171,1.13014 0.74243,0.23131 1.20117,-0.16658 0.67962,-0.58947 0.59475,-1.65043 -0.095,-1.08455 -1.04128,-2.43576 -0.96489,-1.36743 -2.51592,-2.712713 -1.77528,-1.539786 -3.55061,-2.431198 -1.79401,-0.907621 -3.00877,-0.826504 -1.21475,0.08111 -2.49584,1.224682 z"
         style="fill:#ff0000;stroke:#ff0000;stroke-width:1.90418;stroke-miterlimit:4;stroke-dasharray:none;stroke-opacity:1"
         id="path35781" />
      <path
         d="m 150.74831,79.249365 5.94668,-5.15784 0.69142,0.599705 -0.29734,0.257895 q -0.67113,0.582102 -0.6083,1.078692 0.0526,0.473015 0.48413,1.038841 0.43998,0.558459 2.60769,2.438618 l 12.40828,10.762286 q 3.40106,2.949905 4.73298,3.707247 1.3404,0.749977 2.6044,0.917894 1.264,0.167922 2.07956,-0.539448 0.93447,-0.810516 0.67292,-2.172074 -0.27172,-1.385149 -1.57469,-3.075261 -1.29446,-1.697484 -5.33089,-5.198468 l -10.334,-8.96317 q -1.70054,-1.474952 -2.59075,-1.967074 -0.8902,-0.492129 -1.41688,-0.521564 -0.81208,-0.04123 -1.50869,0.562974 l -0.69142,-0.599704 3.98426,-3.455741 0.69143,0.599705 -0.23787,0.20631 q -0.48423,0.419999 -0.37724,1.072784 0.10699,0.652782 0.82217,1.52363 0.48756,0.614451 2.03859,1.959737 l 9.62389,8.347255 q 4.46623,3.873775 6.17522,5.827636 1.71749,1.946497 2.34423,4.287969 0.62673,2.341471 -1.16576,3.896186 -1.49516,1.296826 -3.189,1.242396 -2.30886,-0.07208 -4.63632,-1.295013 -2.32746,-1.22293 -5.4856,-3.962127 L 156.80314,81.907355 q -2.1864,-1.896367 -2.82008,-2.254412 -0.65237,-0.374247 -1.2419,-0.414003 -0.58952,-0.03976 -1.30143,0.610129 z"
         style="fill:#ff0000;stroke:#ff0000;stroke-width:1.90418;stroke-miterlimit:4;stroke-dasharray:none;stroke-opacity:1"
         id="path35783" />
      <path
         d="m 173.88087,59.185395 6.85819,5.948432 -0.30584,0.265268 q -2.64511,-1.822662 -4.00422,-2.426754 -1.37779,-0.620303 -2.57215,-0.654122 -0.65919,-0.01176 -1.46623,0.68823 l -0.85802,0.744206 19.54677,16.953843 q 1.94347,1.685658 2.52278,2.026025 0.58781,0.332994 1.24189,0.414006 0.64389,0.05743 1.13663,-0.369937 l 0.38228,-0.331572 0.69143,0.599707 -6.03163,5.231516 -0.69143,-0.599707 0.38228,-0.331572 q 0.50123,-0.434737 0.41462,-1.040364 -0.0407,-0.418496 -0.54867,-1.0801 -0.35504,-0.470054 -2.26113,-2.123295 l -19.54678,-16.953843 -0.83253,0.722095 q -1.16386,1.009467 -0.6067,2.406381 0.77457,1.953908 3.38225,4.55463 l -0.32282,0.279993 -6.85819,-5.948432 z"
         style="fill:#ff0000;stroke:#ff0000;stroke-width:1.90418;stroke-miterlimit:4;stroke-dasharray:none;stroke-opacity:1"
         id="path35785" />
      <path
         d="m 180.70746,55.792859 10.31532,8.946962 0.22937,-0.198945 q 1.09589,-0.950516 0.075,-2.690742 -1.02093,-1.740242 -3.83758,-4.419037 l 0.32281,-0.279994 13.26789,11.507867 -0.32282,0.279993 q -2.26965,-1.791738 -3.98381,-2.70379 -1.70567,-0.919419 -2.60611,-0.948834 -0.91912,-0.04563 -1.74317,0.669101 l 7.1385,6.191556 q 2.09296,1.815324 2.63659,2.154227 0.55213,0.331525 1.072,0.399276 0.51987,0.06776 1.01259,-0.359605 l 0.68811,-0.596827 q 1.61411,-1.39999 0.9381,-3.666307 -0.66753,-2.273679 -3.60645,-5.559586 l 0.31433,-0.272633 7.53594,7.435241 -9.95642,8.635678 -0.69143,-0.599707 0.38229,-0.331579 q 0.50121,-0.434724 0.41462,-1.040364 -0.0408,-0.418489 -0.55717,-1.072727 -0.35504,-0.470054 -2.26113,-2.123296 l -16.66901,-14.45777 q -1.71922,-1.491161 -2.15414,-1.794675 -0.73901,-0.493605 -1.32343,-0.602618 -0.84607,-0.173833 -1.40675,0.312477 l -0.38229,0.331572 -0.69142,-0.599704 9.6421,-8.363051 7.49356,6.499514 -0.32282,0.279993 q -2.99338,-2.168933 -4.6396,-2.815745 -1.63774,-0.654171 -3.01389,-0.433061 -0.81211,0.120878 -2.12037,1.255601 z"
         style="fill:#ff0000;stroke:#ff0000;stroke-width:1.90418;stroke-miterlimit:4;stroke-dasharray:none;stroke-opacity:1"
         id="path35787" />
    </g>
    <g
       aria-label="DRAFT"
       id="text27032"
       style="font-weight:bold;font-size:25.4px;line-height:1.25;font-family:'Times New Roman';-inkscape-font-specification:'Times New Roman,  Bold';stroke:#ff0000;stroke-width:1.365;stroke-miterlimit:4;stroke-dasharray:none;stroke-opacity:1"
       transform="matrix(2.0697287,0,0,1.1001116,-103.18076,159.09465)">
      <path
         d="m 58.165182,117.31293 v -0.45889 h 0.558105 q 0.731738,0 1.116211,-0.22324 0.396875,-0.23565 0.58291,-0.63252 0.111621,-0.26045 0.111621,-1.5627 v -11.06289 q 0,-1.28984 -0.136425,-1.6123 -0.136426,-0.32246 -0.558106,-0.55811 -0.409277,-0.24804 -1.116211,-0.24804 h -0.558105 v -0.45889 h 7.528222 q 3.01377,0 4.849317,0.81855 2.244824,1.00459 3.398242,3.03858 1.16582,2.03398 1.16582,4.60127 0,1.77353 -0.570508,3.27422 -0.570508,1.48828 -1.475879,2.46806 -0.905371,0.96739 -2.095996,1.5627 -1.178222,0.58291 -2.889746,0.90537 -0.756543,0.14883 -2.38125,0.14883 z m 6.412011,-15.8626 v 13.12168 q 0,1.0418 0.09922,1.27744 0.09922,0.23565 0.334863,0.35967 0.334864,0.18603 0.967383,0.18603 2.071192,0 3.162598,-1.41386 1.488281,-1.90996 1.488281,-5.92832 0,-3.23702 -1.016992,-5.17178 -0.806152,-1.51309 -2.071192,-2.05879 -0.892968,-0.38447 -2.964161,-0.37207 z"
         style="fill:#ff0000;stroke:#ff0000;stroke-width:1.365;stroke-miterlimit:4;stroke-dasharray:none;stroke-opacity:1"
         id="path35748" />
      <path
         d="m 82.920259,109.64828 v 4.71289 q 0,1.36426 0.16123,1.72393 0.173633,0.34726 0.595313,0.5581 0.421679,0.21084 1.575097,0.21084 v 0.45889 h -8.607226 v -0.45889 q 1.16582,0 1.575097,-0.21084 0.42168,-0.22324 0.582911,-0.57051 0.173632,-0.34726 0.173632,-1.71152 v -10.91406 q 0,-1.36426 -0.173632,-1.71153 -0.161231,-0.35966 -0.582911,-0.5705 -0.421679,-0.21084 -1.575097,-0.21084 v -0.45889 h 7.813476 q 3.050977,0 4.464844,0.42168 1.413867,0.42168 2.306836,1.56269 0.892969,1.12862 0.892969,2.65411 0,1.86035 -1.339454,3.07578 -0.855761,0.76894 -2.393652,1.15342 l 4.043164,5.69267 q 0.79375,1.10381 1.128613,1.37666 0.508496,0.38447 1.178223,0.42168 v 0.45889 h -5.295801 l -5.419824,-7.66465 z m 0,-8.24756 v 7.36699 h 0.706933 q 1.723926,0 2.579688,-0.31006 0.855761,-0.32246 1.339453,-1.14101 0.496094,-0.83096 0.496094,-2.15801 0,-1.92236 -0.905372,-2.84014 -0.892968,-0.91777 -2.889746,-0.91777 z"
         style="fill:#ff0000;stroke:#ff0000;stroke-width:1.365;stroke-miterlimit:4;stroke-dasharray:none;stroke-opacity:1"
         id="path35750" />
      <path
         d="m 105.08325,112.52562 h -5.940727 l -0.706933,1.63711 q -0.347266,0.81856 -0.347266,1.35186 0,0.70693 0.570508,1.04179 0.334863,0.19844 1.649508,0.29766 v 0.45889 h -5.593454 v -0.45889 q 0.905372,-0.13643 1.488282,-0.74414 0.58291,-0.62012 1.438672,-2.54248 l 6.01514,-13.41934 h 0.23564 l 6.06475,13.79141 q 0.86816,1.95957 1.42627,2.46807 0.42168,0.38447 1.19062,0.44648 v 0.45889 h -8.13594 v -0.45889 h 0.33487 q 0.97978,0 1.37666,-0.27285 0.27285,-0.19844 0.27285,-0.57051 0,-0.22324 -0.0744,-0.45889 -0.0248,-0.11162 -0.37207,-0.93017 z m -0.42168,-0.91777 -2.50528,-5.7919 -2.579685,5.7919 z"
         style="fill:#ff0000;stroke:#ff0000;stroke-width:1.365;stroke-miterlimit:4;stroke-dasharray:none;stroke-opacity:1"
         id="path35752" />
      <path
         d="m 119.84204,101.46273 v 6.90811 h 0.48369 q 1.11621,0 1.82314,-0.33487 0.70694,-0.33486 1.19063,-1.12861 0.49609,-0.79375 0.64492,-2.1456 h 0.43408 v 8.44599 h -0.43408 q -0.23565,-2.39365 -1.28985,-3.15019 -1.04179,-0.76895 -2.36884,-0.76895 h -0.48369 v 5.14697 q 0,1.28985 0.13642,1.61231 0.14883,0.32246 0.55811,0.57051 0.42168,0.23564 1.12861,0.23564 h 0.55811 v 0.45889 h -8.79327 v -0.45889 h 0.55811 q 0.73174,0 1.17822,-0.26045 0.32246,-0.17363 0.4961,-0.59531 0.13642,-0.29766 0.13642,-1.5627 v -11.06289 q 0,-1.28984 -0.13642,-1.6123 -0.13643,-0.32246 -0.55811,-0.55811 -0.40928,-0.24804 -1.11621,-0.24804 h -0.55811 v -0.45889 h 14.18828 v 4.82451 h -0.50849 q -0.17363,-1.69912 -0.89297,-2.51767 -0.70693,-0.81856 -2.05879,-1.15342 -0.74414,-0.18604 -2.75332,-0.18604 z"
         style="fill:#ff0000;stroke:#ff0000;stroke-width:1.365;stroke-miterlimit:4;stroke-dasharray:none;stroke-opacity:1"
         id="path35754" />
      <path
         d="m 144.39867,100.49535 v 4.55166 h -0.44648 q -0.39688,-1.5751 -0.88057,-2.25723 -0.48369,-0.69453 -1.32705,-1.10381 -0.47129,-0.22324 -1.64951,-0.22324 h -1.25264 v 12.97285 q 0,1.28985 0.13643,1.61231 0.14883,0.32246 0.5581,0.57051 0.42168,0.23564 1.14102,0.23564 h 0.5581 v 0.45889 h -8.80566 v -0.45889 h 0.55811 q 0.73173,0 1.17822,-0.26045 0.32246,-0.17363 0.50849,-0.59531 0.13643,-0.29766 0.13643,-1.5627 v -12.97285 h -1.21543 q -1.69912,0 -2.46807,0.71934 -1.079,1.00459 -1.36425,2.86494 h -0.47129 v -4.55166 z"
         style="fill:#ff0000;stroke:#ff0000;stroke-width:1.365;stroke-miterlimit:4;stroke-dasharray:none;stroke-opacity:1"
         id="path35756" />
    </g>
  </g>
</svg>
